<?xml version="1.0" encoding="UTF-8"?>
<!DOCTYPE svg PUBLIC "-//W3C//DTD SVG 1.1//EN" "http://www.w3.org/Graphics/SVG/1.1/DTD/svg11.dtd">
<!-- Creator: CorelDRAW -->
<svg xmlns="http://www.w3.org/2000/svg" xml:space="preserve" width="1.70666in" height="1.70666in" version="1.1" style="shape-rendering:geometricPrecision; text-rendering:geometricPrecision; image-rendering:optimizeQuality; fill-rule:evenodd; clip-rule:evenodd"
viewBox="0 0 1707 1707"
 xmlns:xlink="http://www.w3.org/1999/xlink">
 <defs>
  <style type="text/css">
   <![CDATA[
    .fil0 {fill:white}
   ]]>
  </style>
 </defs>
 <g id="Layer_x0020_1">
  <metadata id="CorelCorpID_0Corel-Layer"/>
  <g id="_514769320">
   <g>
    <g>
     <path class="fil0" d="M1419 1459l-1239 0c-14,0 -25,-11 -25,-25l0 -787c0,-65 52,-118 117,-118l322 0c14,0 25,11 25,25 0,14 -11,25 -25,25l-320 0c-39,0 -70,32 -70,69l0 764 1191 0 0 -240c0,-13 12,-25 25,-25 14,0 25,12 25,25l0 264c-2,12 -12,23 -26,23zm0 -579c-14,0 -25,-11 -25,-24l0 -208c0,-39 -32,-69 -69,-69l-336 0c-14,0 -25,-11 -25,-25 0,-14 11,-25 25,-25l336 0c65,0 118,53 118,118l0 208c0,14 -10,25 -24,25z"/>
    </g>
    <g>
     <path class="fil0" d="M1504 1601l-1409 0c-53,0 -96,-43 -96,-96l0 -71c0,-13 11,-25 25,-25l1552 0c14,0 25,12 25,25l0 71c-2,54 -45,96 -97,96zm-1456 -142l0 48c0,26 21,47 47,47l1409 0c26,0 47,-21 47,-47l0 -48 -1503 0z"/>
    </g>
    <g>
     <path class="fil0" d="M907 1544l-216 0c-36,0 -66,-29 -66,-67l0 -41c0,-14 11,-25 25,-25l299 0c14,0 25,11 25,25l0 41c-1,36 -31,67 -67,67zm-234 -85l0 18c0,10 8,18 18,18l215 0c10,0 18,-8 18,-18l0 -18 -251 0z"/>
    </g>
    <g>
     <path class="fil0" d="M1174 1530l-45 0c-14,0 -25,-11 -25,-25 0,-14 11,-25 25,-25l45 0c13,0 25,11 25,25 0,14 -13,25 -25,25z"/>
    </g>
    <g>
     <path class="fil0" d="M1282 1530l-45 0c-13,0 -25,-11 -25,-25 0,-14 12,-25 25,-25l45 0c14,0 25,11 25,25 0,14 -11,25 -25,25z"/>
    </g>
    <g>
     <path class="fil0" d="M1391 1530l-44 0c-14,0 -25,-11 -25,-25 0,-14 11,-25 25,-25l44 0c14,0 25,11 25,25 0,14 -12,25 -25,25z"/>
    </g>
    <g>
     <path class="fil0" d="M1114 1375l-642 0c-14,0 -25,-11 -25,-25l0 -239c0,-123 85,-219 227,-256 9,-3 17,0 24,5 24,23 57,35 94,35 38,0 72,-12 95,-35 5,-5 15,-8 23,-5 143,37 228,133 228,256l0 239c0,14 -12,25 -24,25zm-618 -49l593 0 0 -215c0,-134 -116,-187 -179,-205 -32,25 -73,39 -118,39 -44,0 -86,-14 -116,-39 -63,18 -179,71 -179,205l0 215 -1 0z"/>
    </g>
    <g>
     <path class="fil0" d="M792 440c-4,0 -8,-1 -11,-2l-263 -143c-9,-4 -13,-13 -13,-21 0,-8 6,-17 13,-21l262 -144c7,-4 16,-4 23,0l264 143c8,4 12,12 12,21 0,8 -5,16 -12,20l-264 145c-2,2 -7,2 -11,2zm-212 -166l212 115 212 -115 -212 -115 -212 115z"/>
    </g>
    <g>
     <path class="fil0" d="M594 543c-4,0 -8,-1 -12,-3 -7,-4 -13,-12 -13,-21l0 -210c0,-14 11,-25 25,-25 14,0 25,11 25,25 0,1 0,2 0,5l0 165c112,-51 229,-53 347,-4l0 -166c0,-14 11,-25 25,-25 13,0 25,11 25,25l0 203c0,9 -5,17 -12,21 -6,4 -16,6 -23,2 -129,-64 -251,-63 -373,5 -6,2 -10,3 -14,3z"/>
    </g>
    <g>
     <path class="fil0" d="M1120 458c-14,0 -25,-11 -25,-25l0 -135 -262 0c-14,0 -25,-12 -25,-25 0,-14 11,-25 25,-25l287 0c13,0 24,11 24,25l0 160c-1,14 -11,25 -24,25z"/>
    </g>
    <g>
     <path class="fil0" d="M792 336c-36,0 -63,-27 -63,-63 0,-36 27,-64 63,-64 36,0 64,29 64,64 0,36 -29,63 -64,63zm0 -77c-8,0 -15,7 -15,15 0,8 6,15 15,15 9,0 16,-7 16,-15 0,-8 -7,-15 -16,-15z"/>
    </g>
    <g>
     <path class="fil0" d="M844 830l-102 0c-94,0 -170,-76 -170,-171l0 -147c0,-13 11,-25 25,-25 14,0 25,12 25,25l0 147c0,67 55,122 122,122l101 0c68,0 122,-55 122,-122l0 -147c0,-13 11,-25 25,-25 14,0 25,12 25,25l0 147c-3,95 -79,171 -173,171z"/>
    </g>
    <g>
     <path class="fil0" d="M794 747c-21,0 -42,-6 -63,-17 -11,-7 -15,-22 -8,-33 7,-11 22,-15 33,-8 25,13 49,13 78,1 12,-6 26,0 32,11 5,12 0,26 -11,32 -22,10 -42,14 -61,14z"/>
    </g>
    <g>
     <path class="fil0" d="M679 630c-9,0 -17,-4 -21,-12 -7,-11 -3,-27 10,-33 22,-13 48,-14 72,-2 12,6 16,21 11,32 -6,13 -21,17 -32,11 -10,-4 -18,-4 -26,0 -6,3 -10,4 -14,4z"/>
    </g>
    <g>
     <path class="fil0" d="M857 630c-8,0 -16,-4 -20,-12 -7,-11 -3,-27 9,-33 23,-13 48,-14 71,-2 13,6 18,21 11,32 -5,13 -21,17 -32,11 -9,-4 -18,-4 -26,0 -4,3 -8,4 -13,4z"/>
    </g>
    <g>
     <path class="fil0" d="M648 1160c-47,0 -84,-39 -84,-86 0,-47 38,-85 84,-85 24,0 47,10 63,28 9,10 8,25 -2,35 -10,9 -25,8 -35,-2 -6,-8 -16,-12 -26,-12 -21,0 -36,17 -36,36 0,21 17,37 36,37 11,0 24,-5 31,-16 8,-11 23,-13 33,-6 11,9 12,24 5,33 -16,25 -41,38 -69,38z"/>
    </g>
    <g>
     <path class="fil0" d="M1174 1304c-5,0 -10,-1 -13,-4 -8,-6 -12,-17 -10,-26l21 -78c-11,-3 -19,-13 -19,-24l0 -317c0,-14 11,-25 25,-25l504 0c14,0 25,11 25,25l0 316c0,14 -11,25 -25,25l-370 0 -123 103c-4,4 -10,5 -15,5zm26 -157l3 0c7,0 15,5 19,10 4,6 6,14 4,21l-9 35 72 -60c4,-4 9,-6 15,-6l352 0 0 -267 -456 0 0 267z"/>
    </g>
    <g>
     <g>
      <path class="fil0" d="M1567 946l-281 0c-14,0 -25,-11 -25,-25 0,-13 11,-25 25,-25l281 0c14,0 25,12 25,25 0,14 -11,25 -25,25z"/>
     </g>
     <g>
      <path class="fil0" d="M1567 1035l-281 0c-14,0 -25,-11 -25,-25 0,-14 11,-25 25,-25l281 0c14,0 25,11 25,25 0,14 -11,25 -25,25z"/>
     </g>
     <g>
      <path class="fil0" d="M1567 1124l-281 0c-14,0 -25,-11 -25,-25 0,-14 11,-25 25,-25l281 0c14,0 25,11 25,25 0,14 -11,25 -25,25z"/>
     </g>
    </g>
   </g>
  </g>
 </g>
</svg>
